<?xml version="1.0" encoding="utf-8"?>
<!-- Generator: Adobe Illustrator 16.0.0, SVG Export Plug-In . SVG Version: 6.00 Build 0)  -->
<!DOCTYPE svg PUBLIC "-//W3C//DTD SVG 1.1//EN" "http://www.w3.org/Graphics/SVG/1.1/DTD/svg11.dtd">
<svg version="1.1" id="Layer_1" xmlns="http://www.w3.org/2000/svg" xmlns:xlink="http://www.w3.org/1999/xlink" x="0px" y="0px"
	 width="500px" height="500px" viewBox="0 0 500 500" enable-background="new 0 0 500 500" xml:space="preserve">
<g>
	<g>
		<linearGradient id="SVGID_1_" gradientUnits="userSpaceOnUse" x1="101.8989" y1="11.8389" x2="412.8757" y2="382.4465">
			<stop  offset="0" style="stop-color:#9F1119"/>
			<stop  offset="0" style="stop-color:#D80E18"/>
		</linearGradient>
		<path fill-rule="evenodd" clip-rule="evenodd" fill="url(#SVGID_1_)" d="M470.788,143.461c0,20.623,0.688,41.275-0.147,61.868
			c-1.664,41.049-11.996,80.123-29.795,117.097c-26.935,55.959-66.992,100.174-120.188,132.337
			c-20.859,12.614-42.963,22.571-66.321,29.589c-2.712,0.815-6.134,0.846-8.801-0.038c-94.51-31.157-159.857-93.396-196.657-185.623
			c-9.133-22.892-15.133-46.765-17.649-71.34c-1.375-13.438-2.47-26.963-2.6-40.457c-0.358-36.641-0.089-73.282-0.208-109.923
			c-0.013-3.194,0.948-4.867,3.835-6.314c47.413-23.748,97.203-40.187,149.491-49.125c30.739-5.255,61.684-8.384,92.752-5.252
			c23.174,2.336,46.32,5.865,69.137,10.518c42.33,8.631,82.622,23.501,121.38,42.597c4.737,2.334,6.661,4.848,6.562,10.335
			c-0.373,21.238-0.152,42.486-0.152,63.731C471.211,143.461,471,143.461,470.788,143.461z M430.712,93.328
			c8.12,103.046-7.591,162.5-7.591,162.5C388.196,385.496,273.545,430.58,273.545,430.58C48.9,266.417,262.365,159.6,262.365,159.6
			c64.533-23.65,69.317,12.855,69.317,12.855c34.565-70.479-53.477-91.313-53.477-91.313c-7.271-13.792-27.999-32.178-27.999-32.178
			C355.734,52.327,430.712,93.328,430.712,93.328z"/>
		<path fill-rule="evenodd" clip-rule="evenodd" fill="#FFFFFF" d="M183.7,84.547c-0.22,0.455,25.117,8.701,31.739,19.86
			c0.32,0.539,16.417-6.043,28.513-5.611C223.216,86.269,215.237,80.155,183.7,84.547z"/>
	</g>
	<linearGradient id="SVGID_2_" gradientUnits="userSpaceOnUse" x1="313.1465" y1="448.5723" x2="167.0718" y2="195.5635">
		<stop  offset="0.3763" style="stop-color:#D60E18"/>
		<stop  offset="0.5914" style="stop-color:#B91119"/>
		<stop  offset="0.6667" style="stop-color:#A8131A"/>
		<stop  offset="1" style="stop-color:#000000"/>
	</linearGradient>
	<path fill-rule="evenodd" clip-rule="evenodd" fill="url(#SVGID_2_)" d="M331.683,172.455c0,0-17.745-114.699-284.125,118.549
		c0,0,51.342,154.265,202.545,193.966l25.057-54.39c-124.303-82.632-113.75-174.063-72.505-219.749
		C275.209,130.468,330.211,157.262,331.683,172.455"/>
</g>
</svg>
